<svg width="14" height="14" viewBox="0 0 14 14" fill="none" xmlns="http://www.w3.org/2000/svg">
<g clip-path="url(#clip0_1997_6646)">
<path d="M13.5094 6.37968C13.7969 6.74324 13.7969 7.25676 13.5094 7.62032L12.8223 8.48909C12.6763 8.67375 12.6001 8.90401 12.6071 9.13934L12.64 10.2387C12.6537 10.6963 12.355 11.1047 11.9148 11.2303L10.7996 11.5484C10.5783 11.6115 10.3855 11.7491 10.2539 11.9377L9.59794 12.8776C9.34115 13.2455 8.8707 13.3974 8.44724 13.249L7.33066 12.8578C7.1166 12.7828 6.8834 12.7828 6.66934 12.8578L5.55277 13.249C5.1293 13.3974 4.65886 13.2455 4.40206 12.8776L3.74615 11.9377C3.61446 11.7491 3.42173 11.6116 3.20045 11.5484L2.08521 11.2303C1.64502 11.1047 1.3463 10.6963 1.36 10.2387L1.3929 9.13934C1.39995 8.90402 1.32374 8.67376 1.1777 8.4891L0.490601 7.62032C0.203063 7.25676 0.203063 6.74324 0.490602 6.37968L1.1777 5.51091C1.32374 5.32625 1.39995 5.09599 1.3929 4.86066L1.36 3.76129C1.3463 3.30375 1.64502 2.89532 2.08521 2.76974L3.20045 2.45158C3.42172 2.38845 3.61446 2.25095 3.74615 2.06225L4.40206 1.12242C4.65885 0.754469 5.12929 0.60261 5.55276 0.750978L6.66934 1.14219C6.8834 1.21719 7.1166 1.21719 7.33066 1.14219L8.44723 0.750977C8.87069 0.602608 9.34114 0.754465 9.59794 1.12242L10.2538 2.06225C10.3855 2.25095 10.5783 2.38845 10.7995 2.45158L11.9148 2.76974C12.355 2.89532 12.6537 3.30375 12.64 3.76129L12.6071 4.86066C12.6001 5.09598 12.6763 5.32624 12.8223 5.5109L13.5094 6.37968Z" fill="#47B749"/>
<path d="M9.88665 5.18556L5.93153 9.44103L4.11328 7.62278" stroke="white" stroke-width="1.3" stroke-linecap="round" stroke-linejoin="round"/>
</g>
<defs>
<clipPath id="clip0_1997_6646">
<rect width="14" height="14" fill="white"/>
</clipPath>
</defs>
</svg>
